<?xml version="1.0" encoding="UTF-8"?>
<svg version="1.1" xmlns="http://www.w3.org/2000/svg" width="128" height="133">
<path d="M0 0 C3.69768496 1.5589018 7.06916089 3.55261367 10.5 5.625 C11.48669678 6.20314453 12.47339355 6.78128906 13.48999023 7.37695312 C15.58439701 8.60552221 17.67472672 9.84106424 19.76123047 11.08300781 C23.03404276 13.02014954 26.32718592 14.91729561 29.62890625 16.8046875 C31.77369299 18.03601342 33.91823151 19.26777182 36.0625 20.5 C37.06667969 21.07443848 38.07085937 21.64887695 39.10546875 22.24072266 C40.05164063 22.79034668 40.9978125 23.3399707 41.97265625 23.90625 C42.80031494 24.38384766 43.62797363 24.86144531 44.48071289 25.35351562 C45.31207764 25.89685547 46.14344238 26.44019531 47 27 C48.07725342 27.58910156 49.15450684 28.17820312 50.2644043 28.78515625 C52.55695511 30.76504788 52.98127036 31.90184215 53.55787659 34.92370605 C53.79770114 38.79988994 53.83516996 42.65044284 53.796875 46.53125 C53.80091998 47.96944773 53.80674578 49.40764146 53.81427002 50.8458252 C53.82310127 53.85546036 53.81030906 56.8640248 53.78222656 59.87353516 C53.74803726 63.72441067 53.76772872 67.57277757 53.80366135 71.4235611 C53.82538205 74.39205707 53.81842515 77.3599618 53.80289459 80.32847595 C53.79890269 81.7478007 53.80376695 83.16717978 53.81777191 84.58644104 C53.90228083 95.55719786 53.90228083 95.55719786 51.82341003 98.88143921 C50.32788086 100.18310547 50.32788086 100.18310547 47 102 C46.02651611 102.61439941 45.05303223 103.22879883 44.05004883 103.86181641 C43.02935303 104.43593262 42.00865723 105.01004883 40.95703125 105.6015625 C39.23564941 106.57706055 39.23564941 106.57706055 37.47949219 107.57226562 C36.25739021 108.2569189 35.03505488 108.94115578 33.8125 109.625 C31.29185597 111.04229929 28.77276312 112.46234 26.25390625 113.8828125 C25.63160126 114.23293396 25.00929626 114.58305542 24.36813354 114.94378662 C20.61086719 117.06477515 16.89896653 119.24546798 13.21484375 121.4921875 C12.36494873 122.00571777 11.51505371 122.51924805 10.6394043 123.04833984 C9.09718924 123.98529813 7.56278083 124.93528685 6.03833008 125.90087891 C1.46029794 128.65702471 -2.60663537 130.26772377 -8 129 C-11.69768496 127.4410982 -15.06916089 125.44738633 -18.5 123.375 C-19.48669678 122.79685547 -20.47339355 122.21871094 -21.48999023 121.62304688 C-23.58439701 120.39447779 -25.67472672 119.15893576 -27.76123047 117.91699219 C-31.03404276 115.97985046 -34.32718592 114.08270439 -37.62890625 112.1953125 C-39.77369299 110.96398658 -41.91823151 109.73222818 -44.0625 108.5 C-45.06667969 107.92556152 -46.07085937 107.35112305 -47.10546875 106.75927734 C-48.05164062 106.20965332 -48.9978125 105.6600293 -49.97265625 105.09375 C-51.21414429 104.37735352 -51.21414429 104.37735352 -52.48071289 103.64648438 C-53.31207764 103.10314453 -54.14344238 102.55980469 -55 102 C-56.07725342 101.41089844 -57.15450684 100.82179688 -58.2644043 100.21484375 C-60.55695511 98.23495212 -60.98127036 97.09815785 -61.55787659 94.07629395 C-61.79770114 90.20011006 -61.83516996 86.34955716 -61.796875 82.46875 C-61.80091998 81.03055227 -61.80674578 79.59235854 -61.81427002 78.1541748 C-61.82310127 75.14453964 -61.81030906 72.1359752 -61.78222656 69.12646484 C-61.74803726 65.27558933 -61.76772872 61.42722243 -61.80366135 57.5764389 C-61.82538205 54.60794293 -61.81842515 51.6400382 -61.80289459 48.67152405 C-61.79890269 47.2521993 -61.80376695 45.83282022 -61.81777191 44.41355896 C-61.90228083 33.44280214 -61.90228083 33.44280214 -59.82341003 30.11856079 C-58.32788086 28.81689453 -58.32788086 28.81689453 -55 27 C-54.02651611 26.38560059 -53.05303223 25.77120117 -52.05004883 25.13818359 C-50.51900513 24.27700928 -50.51900513 24.27700928 -48.95703125 23.3984375 C-47.80944336 22.74810547 -46.66185547 22.09777344 -45.47949219 21.42773438 C-44.25739021 20.7430811 -43.03505488 20.05884422 -41.8125 19.375 C-39.29185597 17.95770071 -36.77276312 16.53766 -34.25390625 15.1171875 C-33.63160126 14.76706604 -33.00929626 14.41694458 -32.36813354 14.05621338 C-28.61086719 11.93522485 -24.89896653 9.75453202 -21.21484375 7.5078125 C-20.36494873 6.99428223 -19.51505371 6.48075195 -18.6394043 5.95166016 C-17.09718924 5.01470187 -15.56278083 4.06471315 -14.03833008 3.09912109 C-9.46029794 0.34297529 -5.39336463 -1.26772377 0 0 Z M-9.87109375 10.90625 C-10.60465088 11.31681641 -11.33820801 11.72738281 -12.09399414 12.15039062 C-12.86735107 12.59576172 -13.64070801 13.04113281 -14.4375 13.5 C-15.23212646 13.95052734 -16.02675293 14.40105469 -16.84545898 14.86523438 C-28.8451111 20.55544671 -28.8451111 20.55544671 -38 29 C-38.11080468 30.70428972 -38.15917005 32.41281065 -38.17700195 34.12060547 C-38.18983719 35.18866425 -38.20267242 36.25672302 -38.21589661 37.35714722 C-38.22328354 38.51546051 -38.23067047 39.6737738 -38.23828125 40.8671875 C-38.246353 42.05345734 -38.25442474 43.23972717 -38.26274109 44.46194458 C-38.27658957 46.97542861 -38.28730829 49.48893151 -38.29516602 52.00244141 C-38.31239816 55.8522485 -38.35628137 59.70120139 -38.40039062 63.55078125 C-38.41051547 65.989577 -38.41903222 68.42838007 -38.42578125 70.8671875 C-38.44328934 72.02145233 -38.46079742 73.17571716 -38.47883606 74.36495972 C-38.47444771 75.97650436 -38.47444771 75.97650436 -38.4699707 77.62060547 C-38.47583694 78.56499481 -38.48170319 79.50938416 -38.48774719 80.48239136 C-37.85368615 83.7552294 -36.5271895 84.89827315 -34 87 C-32.39743883 88.06082691 -30.756028 89.06464983 -29.0859375 90.015625 C-27.69761719 90.80839844 -27.69761719 90.80839844 -26.28125 91.6171875 C-25.3221875 92.15601562 -24.363125 92.69484375 -23.375 93.25 C-22.40820312 93.80429688 -21.44140625 94.35859375 -20.4453125 94.9296875 C-15.9827277 97.82265656 -15.9827277 97.82265656 -11 99 C-11 99.66 -11 100.32 -11 101 C-12.65697379 101.69040574 -14.3255761 102.3530635 -16 103 C-16.60110596 103.24733887 -17.20221191 103.49467773 -17.8215332 103.74951172 C-21.0982176 104.12627718 -22.80847537 102.74422354 -25.60546875 101.0703125 C-26.67087891 100.43996094 -27.73628906 99.80960937 -28.83398438 99.16015625 C-29.94064453 98.48855469 -31.04730469 97.81695312 -32.1875 97.125 C-33.30576172 96.46113281 -34.42402344 95.79726562 -35.57617188 95.11328125 C-43.77537594 90.22462406 -43.77537594 90.22462406 -45 89 C-45.1231517 87.25161165 -45.17787811 85.49835496 -45.20532227 83.74584961 C-45.22526749 82.62476303 -45.24521271 81.50367645 -45.26576233 80.34861755 C-45.28247482 79.1288472 -45.29918732 77.90907684 -45.31640625 76.65234375 C-45.33718735 75.41078018 -45.35796844 74.16921661 -45.37937927 72.89002991 C-45.43383609 69.58400877 -45.48404205 66.27797755 -45.53222656 62.97186279 C-45.58239856 59.60032509 -45.63810701 56.22887947 -45.69335938 52.85742188 C-45.80070038 46.23835449 -45.90244198 39.6192184 -46 33 C-49.65316671 34.24976756 -50.78065836 34.67098753 -53 38 C-53.32390748 40.45594556 -53.32390748 40.45594556 -53.30639648 43.23413086 C-53.32238388 44.30211411 -53.33837128 45.37009735 -53.35484314 46.47044373 C-53.36020584 47.62359573 -53.36556854 48.77674774 -53.37109375 49.96484375 C-53.38012222 51.14969864 -53.3891507 52.33455353 -53.39845276 53.55531311 C-53.41296962 56.06280992 -53.42184554 58.57034474 -53.42553711 61.07788086 C-53.43744298 64.91910353 -53.48662651 68.75872542 -53.53710938 72.59960938 C-53.54657207 75.03384631 -53.55380784 77.46809313 -53.55859375 79.90234375 C-53.57812607 81.05347153 -53.59765839 82.2045993 -53.61778259 83.39060974 C-53.74946434 89.47405635 -53.74946434 89.47405635 -50.84008789 94.52880859 C-49.90285889 95.01430176 -48.96562988 95.49979492 -48 96 C-47.05125 96.59901123 -46.1025 97.19802246 -45.125 97.81518555 C-40.96144348 100.24296155 -40.96144348 100.24296155 -36.7890625 102.65551758 C-35.00032716 103.68731129 -33.21887009 104.7309447 -31.4375 105.77539062 C-30.303125 106.43087891 -29.16875 107.08636719 -28 107.76171875 C-26.96875 108.35944092 -25.9375 108.95716309 -24.875 109.57299805 C-22.06031619 110.97006215 -20.13271651 111.85112997 -17 112 C-14.08421773 110.91164415 -14.08421773 110.91164415 -11.1328125 109.1328125 C-10.00593018 108.49802979 -8.87904785 107.86324707 -7.71801758 107.20922852 C-6.52008948 106.51492645 -5.32242118 105.82017596 -4.125 105.125 C-2.90645973 104.43112627 -1.6873007 103.73833806 -0.4675293 103.04663086 C8.10238169 98.16935308 16.61206864 93.18450029 25 88 C25 91.3 25 94.6 25 98 C23.9649231 98.38285156 23.9649231 98.38285156 22.90893555 98.7734375 C19.60066707 100.16838008 16.57572795 101.84554614 13.45703125 103.625 C12.54252449 104.14634521 12.54252449 104.14634521 11.60954285 104.67822266 C10.32871254 105.40954515 9.04880386 106.1424839 7.76977539 106.87695312 C5.81083905 108.00095302 3.84803841 109.11797054 1.88476562 110.234375 C0.63778371 110.94750219 -0.60896921 111.66102999 -1.85546875 112.375 C-2.98621826 113.02210937 -4.11696777 113.66921875 -5.28198242 114.3359375 C-8.02645292 115.87055546 -8.02645292 115.87055546 -10 118 C-7.53034749 119.6147728 -6.24530535 120.02002582 -3.26660156 119.77685547 C0.49729572 118.88173431 3.28366071 117.42874739 6.640625 115.5078125 C7.24888123 115.16120575 7.85713745 114.814599 8.48382568 114.45748901 C9.76031213 113.72722126 11.03423175 112.99245011 12.30566406 112.25341797 C14.25165005 111.12404238 16.20697249 110.01234242 18.1640625 108.90234375 C19.40684087 108.18852775 20.64904911 107.47371801 21.890625 106.7578125 C23.01500977 106.1095752 24.13939453 105.46133789 25.29785156 104.79345703 C28.20085063 103.11743594 28.20085063 103.11743594 30 100 C30.31714458 97.54380558 30.31714458 97.54380558 30.29052734 94.76586914 C30.30328705 93.69788589 30.31604675 92.62990265 30.32919312 91.52955627 C30.33141876 90.37640427 30.33364441 89.22325226 30.3359375 88.03515625 C30.3425943 86.85030136 30.3492511 85.66544647 30.35610962 84.44468689 C30.36624154 81.93718012 30.37092647 79.42964636 30.37060547 76.92211914 C30.37497883 73.08109236 30.41129564 69.24121403 30.44921875 65.40039062 C30.45508663 62.96614977 30.45905622 60.53190345 30.4609375 58.09765625 C30.47530853 56.94652847 30.48967957 55.7954007 30.50448608 54.60939026 C30.4952562 53.00268715 30.4952562 53.00268715 30.48583984 51.36352539 C30.48868988 50.42215225 30.49153992 49.48077911 30.49447632 48.51087952 C29.85170645 45.2469867 28.52106596 44.09879814 26 42 C24.39743883 40.93917309 22.756028 39.93535017 21.0859375 38.984375 C20.16039063 38.45585938 19.23484375 37.92734375 18.28125 37.3828125 C17.3221875 36.84398438 16.363125 36.30515625 15.375 35.75 C14.40820312 35.19570313 13.44140625 34.64140625 12.4453125 34.0703125 C7.9827277 31.17734344 7.9827277 31.17734344 3 30 C3 29.34 3 28.68 3 28 C4.65697379 27.30959426 6.3255761 26.6469365 8 26 C8.60110596 25.75338623 9.20221191 25.50677246 9.8215332 25.25268555 C13.0910312 24.8734487 14.80533317 26.23695985 17.60546875 27.89453125 C18.67087891 28.52037109 19.73628906 29.14621094 20.83398438 29.79101562 C21.94064453 30.45810547 23.04730469 31.12519531 24.1875 31.8125 C25.30576172 32.46798828 26.42402344 33.12347656 27.57617188 33.79882812 C35.854877 38.70975399 35.854877 38.70975399 37 41 C37.11931048 42.75590877 37.17719868 44.51614607 37.20532227 46.27587891 C37.2352401 47.92736435 37.2352401 47.92736435 37.26576233 49.61221313 C37.28247482 50.80494843 37.29918732 51.99768372 37.31640625 53.2265625 C37.3475779 55.05349136 37.3475779 55.05349136 37.37937927 56.91732788 C37.44492584 60.8198262 37.50378355 64.7223935 37.5625 68.625 C37.60568035 71.26563222 37.64929448 73.90625739 37.69335938 76.546875 C37.80061244 83.03117643 37.90236929 89.51554694 38 96 C41.65316671 94.75023244 42.78065836 94.32901247 45 91 C45.32369233 88.59188988 45.32369233 88.59188988 45.30639648 85.87353516 C45.32238388 84.82880035 45.33837128 83.78406555 45.35484314 82.70767212 C45.36288719 81.01546036 45.36288719 81.01546036 45.37109375 79.2890625 C45.38012222 78.12877533 45.3891507 76.96848816 45.39845276 75.77304077 C45.41297007 73.31681912 45.42184565 70.86055866 45.42553711 68.40429688 C45.43743203 64.64647243 45.48660564 60.89029019 45.53710938 57.1328125 C45.54657345 54.74740386 45.55380856 52.36198512 45.55859375 49.9765625 C45.57812607 48.85246979 45.59765839 47.72837708 45.61778259 46.57022095 C45.63637624 40.36356236 45.63637624 40.36356236 42.83789062 34.98706055 C38.29971426 31.80947818 33.64865292 28.97186201 28.84399414 26.21411133 C27.06183793 25.18711847 25.2937529 24.138415 23.52539062 23.08789062 C22.39423828 22.43369141 21.26308594 21.77949219 20.09765625 21.10546875 C18.55863647 20.21057739 18.55863647 20.21057739 16.98852539 19.29760742 C13.59630274 17.82471604 11.6591257 17.51713896 8 18 C4.84980318 19.32796579 4.84980318 19.32796579 1.7109375 21.25390625 C1.12639801 21.59244125 0.54185852 21.93097626 -0.06039429 22.2797699 C-1.92258739 23.36200832 -3.77370856 24.46173866 -5.625 25.5625 C-6.84435761 26.27527791 -8.06440524 26.98687678 -9.28515625 27.69726562 C-12.27660777 29.44155179 -15.25947703 31.19994418 -18.24035645 32.96221924 C-21.12045023 34.66080525 -24.00959921 36.3436728 -26.8984375 38.02734375 C-27.88247559 38.600896 -28.86651367 39.17444824 -29.88037109 39.76538086 C-30.9295874 40.37651733 -30.9295874 40.37651733 -32 41 C-32 37.7 -32 34.4 -32 31 C-30.94244507 30.60143799 -30.94244507 30.60143799 -29.86352539 30.19482422 C-24.49665777 27.9554645 -19.50810938 24.95900023 -14.4375 22.125 C-13.30119141 21.49980469 -12.16488281 20.87460937 -10.99414062 20.23046875 C-9.90166016 19.62074219 -8.80917969 19.01101562 -7.68359375 18.3828125 C-6.19170532 17.55354248 -6.19170532 17.55354248 -4.66967773 16.70751953 C-2.0591862 15.03785535 -0.09118411 13.2740114 2 11 C-2.35148423 8.51343758 -5.51875569 8.44353722 -9.87109375 10.90625 Z " fill="#FFFFFF" transform="translate(68,2)"/>
</svg>
