<?xml version="1.0" encoding="UTF-8"?>
<!DOCTYPE svg PUBLIC "-//W3C//DTD SVG 1.1//EN" "http://www.w3.org/Graphics/SVG/1.1/DTD/svg11.dtd">
<svg xmlns="http://www.w3.org/2000/svg" version="1.1" width="3028px" height="3144px" style="shape-rendering:geometricPrecision; text-rendering:geometricPrecision; image-rendering:optimizeQuality; fill-rule:evenodd; clip-rule:evenodd" xmlns:xlink="http://www.w3.org/1999/xlink">
<g><path style="opacity:1" fill="#8739ef" d="M 1507.5,43.5 C 1540.39,43.3096 1571.39,50.8096 1600.5,66C 1737.01,145.425 1874.01,224.092 2011.5,302C 2266.03,449.096 2520.37,596.429 2774.5,744C 2826.57,777.842 2855.07,826.009 2860,888.5C 2860.67,1343.17 2860.67,1797.83 2860,2252.5C 2855.59,2317.87 2825.75,2367.7 2770.5,2402C 2381.57,2625.93 1992.91,2850.27 1604.5,3075C 1544,3107.27 1483.33,3107.6 1422.5,3076C 1031.51,2850.84 640.84,2625.17 250.5,2399C 201.144,2366.5 172.977,2320.67 166,2261.5C 165.333,1802.5 165.333,1343.5 166,884.5C 171.909,823.998 200.075,777.165 250.5,744C 454.16,626.838 657.494,509.172 860.5,391C 1048.58,283.79 1236.25,175.79 1423.5,67C 1449.84,52.7126 1477.84,44.8793 1507.5,43.5 Z M 1499.5,244.5 C 1529.71,242.842 1558.38,248.676 1585.5,262C 1620.5,282.333 1655.5,302.667 1690.5,323C 1414.33,482.919 1138,642.586 861.5,802C 860.169,870.099 860.169,938.266 861.5,1006.5C 1171.83,827.333 1482.17,648.167 1792.5,469C 1838.56,444.2 1885.56,442.2 1933.5,463C 2159,593.586 2384.67,723.919 2610.5,854C 2653.75,883.308 2677.92,924.142 2683,976.5C 2683.99,1376.52 2683.66,1776.52 2682,2176.5C 2674.72,2224.39 2651.22,2261.89 2611.5,2289C 2576.58,2309.04 2541.75,2329.21 2507,2349.5C 2506.67,1928.5 2506.33,1507.5 2506,1086.5C 2499.32,1026.92 2471.15,980.754 2421.5,948C 2234.34,840.253 2047.34,732.253 1860.5,624C 1859.17,623.333 1857.83,623.333 1856.5,624C 1801.17,659.333 1745.83,694.667 1690.5,730C 1878.17,839.172 2066.17,947.839 2254.5,1056C 2297.95,1084.03 2322.78,1123.86 2329,1175.5C 2329.67,1574.83 2329.67,1974.17 2329,2373.5C 2323.44,2425.5 2298.94,2465.66 2255.5,2494C 2033.5,2622.33 1811.5,2750.67 1589.5,2879C 1538.99,2905.85 1488.33,2906.18 1437.5,2880C 1408.34,2863.25 1379.34,2846.25 1350.5,2829C 1627.17,2669.33 1903.83,2509.67 2180.5,2350C 2181.83,2281.9 2181.83,2213.73 2180.5,2145.5C 1870.17,2324.67 1559.83,2503.83 1249.5,2683C 1200.65,2709.09 1151.32,2710.09 1101.5,2686C 873.758,2553.93 645.758,2422.27 417.5,2291C 374.346,2263.23 349.513,2223.73 343,2172.5C 342.005,1769.48 342.338,1366.48 344,963.5C 352.244,915.976 376.411,879.142 416.5,853C 450.252,833.374 484.085,813.874 518,794.5C 518.333,1214.83 518.667,1635.17 519,2055.5C 525.414,2115.84 553.914,2162.34 604.5,2195C 791.997,2302.91 979.33,2411.08 1166.5,2519.5C 1222.67,2483.92 1278.67,2448.08 1334.5,2412C 1145.83,2303 957.167,2194 768.5,2085C 726.689,2056.91 702.522,2017.74 696,1967.5C 695.333,1567.5 695.333,1167.5 696,767.5C 701.486,721.015 722.653,683.515 759.5,655C 985.997,524.586 1212.33,393.919 1438.5,263C 1457.88,253.257 1478.22,247.09 1499.5,244.5 Z"/></g>
</svg>
