<?xml version="1.0" encoding="UTF-8"?>
<svg id="Layer_1" data-name="Layer 1" xmlns="http://www.w3.org/2000/svg" viewBox="0 0 750 839.82">
  <path d="M201.89,756.93v-5.17c-2.17-27.12,7.41-77.67,56.98-104.36,44.97-24.21,55.59-30.03,55.73-30.1l.81-.43s25.13-13.79,25.13-36.46v-131.02c-25.07,14.85-132.82,78.53-173.76,100.58-26.29,14.15-23.59,43.08-23.57,43.37l.17,3.31v126.51l58.5,33.77Z"/>
  <path d="M265.63,747.43l.28,2.08-.14.81v43.49l74.9,43.24v-161.22c-6.58,3.57-21.38,11.58-51.51,27.8-25.07,13.5-23.76,40.73-23.52,43.79Z"/>
  <path d="M578.18,453.77c-40.95-22.05-148.7-85.74-173.77-100.59v134.77c0,22.61,24.88,36.33,25.13,36.46l.82.43c.14.08,10.76,5.89,55.73,30.1,49.57,26.69,59.15,77.24,56.98,104.36v100.52l58.5-33.77v-227.71l.17-1.21c.19-2.64,1.5-29.88-23.56-43.37Z"/>
  <path d="M479.21,655.77l.17-1.21c.2-2.64,1.5-29.88-23.56-43.38-29.82-16.06-44.61-24.06-51.29-27.68v256.32s.04-.02.05-.03l74.63-43.09v-140.94Z"/>
  <path d="M720.42,190.27L404.58,7.93c-9.15-5.28-19.37-7.93-29.58-7.93s-20.43,2.64-29.58,7.93L29.58,190.27C11.28,200.84,0,220.37,0,241.51v364.69c0,21.14,11.28,40.67,29.58,51.24l49.94,28.83v-88.2c-2.17-27.11,7.42-77.66,56.98-104.35,44.33-23.87,175.28-101.54,176.59-102.32l1.83-1.08,1.96-.83c.65-.3,23.67-11.02,23.67-32.14v-121.74c-14.94-10.32-24.74-27.54-24.74-47.06,0-31.58,25.6-57.18,57.18-57.18s57.18,25.6,57.18,57.18c0,19.97-10.25,37.52-25.76,47.75v24.86c0,21.12,23.03,31.84,24.01,32.29l1.96.83,1.49.94c1.32.78,132.26,78.45,176.59,102.32,49.57,26.69,59.15,77.24,56.98,104.35v187.29l54.97-31.74c18.31-10.57,29.58-30.1,29.58-51.24V241.51c0-21.14-11.28-40.67-29.58-51.24Z"/>
</svg>