<?xml version="1.0" encoding="UTF-8"?>
<svg id="Layer_1" data-name="Layer 1" xmlns="http://www.w3.org/2000/svg" viewBox="0 0 270.81 303.25">
  <path d="M72.9,273.31v-1.87c-.78-9.79,2.68-28.04,20.58-37.68,16.24-8.74,20.07-10.84,20.12-10.87l.29-.16s9.08-4.98,9.08-13.16v-47.31c-9.05,5.36-47.96,28.36-62.74,36.32-9.49,5.11-8.52,15.56-8.51,15.66l.06,1.19v45.68l21.12,12.2Z" fill="#fff"/>
  <path d="M95.91,269.88l.1.75-.05.29v15.7l27.04,15.61v-58.21c-2.38,1.29-7.72,4.18-18.6,10.04-9.05,4.87-8.58,14.71-8.49,15.81Z" fill="#fff"/>
  <path d="M208.77,163.85c-14.79-7.96-53.69-30.96-62.74-36.32v48.66c0,8.16,8.98,13.12,9.07,13.16l.29.16c.05.03,3.89,2.13,20.12,10.87,17.9,9.64,21.36,27.89,20.58,37.68v36.3l21.12-12.19v-82.22l.06-.44c.07-.95.54-10.79-8.51-15.66Z" fill="#fff"/>
  <path d="M173.04,236.79l.06-.44c.07-.95.54-10.79-8.51-15.66-10.77-5.8-16.11-8.69-18.52-10v92.55s.01,0,.02-.01l26.95-15.56v-50.89Z" fill="#fff"/>
  <path d="M260.13,68.71L146.09,2.86c-3.3-1.91-6.99-2.86-10.68-2.86s-7.38.95-10.68,2.86L10.68,68.71c-6.61,3.82-10.68,10.87-10.68,18.5v131.69c0,7.63,4.07,14.69,10.68,18.5l18.03,10.41v-31.85c-.78-9.79,2.68-28.04,20.57-37.68,16.01-8.62,63.29-36.66,63.76-36.95l.66-.39.71-.3c.23-.11,8.55-3.98,8.55-11.61v-43.96c-5.39-3.73-8.93-9.94-8.93-16.99,0-11.4,9.24-20.65,20.65-20.65s20.65,9.24,20.65,20.65c0,7.21-3.7,13.55-9.3,17.24v8.98c0,7.63,8.32,11.5,8.67,11.66l.71.3.54.34c.48.28,47.76,28.33,63.76,36.95,17.9,9.64,21.36,27.89,20.57,37.68v67.63l19.85-11.46c6.61-3.82,10.68-10.87,10.68-18.5V87.21c0-7.63-4.07-14.69-10.68-18.5Z" fill="#fff"/>
</svg>