<?xml version="1.0" encoding="UTF-8"?>
<svg id="Layer_1" data-name="Layer 1" xmlns="http://www.w3.org/2000/svg" viewBox="0 0 578.36 165.51">
  <path d="M184.87,54.18c-2.95,3.12-4.81,7.55-5.62,13.26v-19h-8.99v63.15h11.35v-34.18c0-6.31,1.7-11.14,5.09-14.49,3.39-3.35,8.24-5.03,14.55-5.03h4.02v-10.17h-2.13c-8.12,0-14.21,2.15-18.27,6.44Z" fill="#fff"/>
  <path d="M277.76,97.52c-5.05,3.71-11.28,5.56-18.69,5.56-5.28,0-9.9-.93-13.83-2.78-3.94-1.85-7.23-4.4-9.87-7.63-2.64-3.23-4.61-6.94-5.91-11.12-1.3-4.18-1.95-8.59-1.95-13.24,0-4.89.65-9.42,1.95-13.6,1.3-4.18,3.23-7.86,5.8-11.06,2.56-3.19,5.77-5.68,9.64-7.45,3.86-1.77,8.36-2.66,13.48-2.66,4.73,0,9,.79,12.83,2.37,3.82,1.58,7,3.96,9.52,7.15,2.52,3.19,4.1,7.23,4.73,12.12h11.83c-.71-6.54-2.68-12.22-5.91-17.03-3.23-4.81-7.61-8.55-13.13-11.23-5.52-2.68-12.14-4.02-19.87-4.02s-14.07,1.3-19.51,3.9c-5.44,2.6-9.86,6.03-13.24,10.29-3.39,4.26-5.9,8.99-7.51,14.19-1.62,5.2-2.42,10.41-2.42,15.61v2.6c0,4.81.79,9.8,2.36,14.96,1.58,5.16,4.06,9.95,7.45,14.37,3.39,4.41,7.86,8,13.42,10.76,5.56,2.76,12.28,4.14,20.16,4.14s14.88-1.46,20.52-4.37,10.05-6.82,13.24-11.71c3.19-4.89,5.18-10.29,5.97-16.2h-11.83c-1.1,7.02-4.18,12.38-9.22,16.08Z" fill="#fff"/>
  <path d="M364.44,56.54c-2.92-3.11-6.47-5.59-10.65-7.45-4.18-1.85-8.95-2.78-14.31-2.78s-10.13.93-14.31,2.78c-4.18,1.85-7.73,4.34-10.64,7.45-2.92,3.12-5.12,6.62-6.62,10.53-1.5,3.9-2.25,7.86-2.25,11.88v2.13c0,4.02.73,7.97,2.19,11.83,1.46,3.87,3.62,7.35,6.5,10.47,2.88,3.12,6.4,5.62,10.59,7.51,4.18,1.89,9.03,2.84,14.54,2.84s10.37-.95,14.55-2.84c4.18-1.89,7.7-4.39,10.59-7.51,2.87-3.11,5.04-6.6,6.5-10.47,1.46-3.86,2.19-7.8,2.19-11.83v-2.13c0-4.02-.75-7.98-2.25-11.88-1.5-3.9-3.71-7.41-6.62-10.53ZM359.29,91.96c-1.77,3.55-4.33,6.37-7.69,8.45-3.35,2.09-7.39,3.13-12.12,3.13s-8.77-1.04-12.12-3.13c-3.35-2.09-5.92-4.91-7.69-8.45-1.77-3.55-2.66-7.53-2.66-11.94s.9-8.52,2.72-12.06c1.81-3.55,4.41-6.35,7.8-8.4,3.39-2.05,7.37-3.08,11.94-3.08s8.65,1.03,12,3.08c3.35,2.05,5.93,4.85,7.75,8.4,1.81,3.54,2.72,7.57,2.72,12.06s-.89,8.4-2.66,11.94Z" fill="#fff"/>
  <path d="M413.52,46.55h-.47c-5.28,0-9.66,1.12-13.13,3.37-3.47,2.25-6.05,5.52-7.75,9.82-.43,1.09-.8,2.24-1.12,3.45v-14.74h-8.99v63.15h11.35v-37.72c0-5.12,1.54-9.22,4.61-12.3,3.08-3.08,7.1-4.61,12.06-4.61s8.59,1.48,11.35,4.44c2.76,2.96,4.14,6.88,4.14,11.76v38.43h11.35v-36.07c0-9.38-1.91-16.55-5.73-21.52-3.83-4.97-9.72-7.45-17.68-7.45Z" fill="#fff"/>
  <path d="M456.68,29.05c-3.71,3.31-5.56,8.47-5.56,15.49v3.9h-8.75v8.51h8.75v54.63h10.88v-54.63h16.91v-8.51h-16.91v-5.79c0-2.84.79-5.07,2.37-6.68,1.58-1.62,3.82-2.42,6.74-2.42h8.99v-9.46h-7.09c-7.18,0-12.62,1.66-16.32,4.97Z" fill="#fff"/>
  <path d="M497.71,38.27c2.52,0,4.39-.67,5.62-2.01,1.22-1.34,1.83-3.03,1.83-5.08s-.61-3.74-1.83-5.08c-1.22-1.34-3.09-2.01-5.62-2.01s-4.4.67-5.62,2.01c-1.22,1.34-1.83,3.04-1.83,5.08s.61,3.75,1.83,5.08c1.22,1.34,3.09,2.01,5.62,2.01Z" fill="#fff"/>
  <polygon points="485.3 48.44 485.3 57.43 494.52 57.43 494.52 111.59 505.87 111.59 505.87 57.43 505.87 48.44 494.52 48.44 485.3 48.44" fill="#fff"/>
  <path d="M569.37,48.44v12.22c-.18-.38-.33-.8-.53-1.17-2.33-4.3-5.5-7.57-9.52-9.81-4.02-2.25-8.67-3.37-13.95-3.37-4.49,0-8.61.79-12.36,2.37-3.74,1.58-6.96,3.78-9.64,6.62-2.68,2.84-4.77,6.17-6.27,9.99-1.5,3.82-2.25,7.94-2.25,12.36v2.13c0,4.34.73,8.45,2.19,12.36,1.46,3.9,3.51,7.35,6.15,10.35,2.64,3,5.79,5.34,9.46,7.04,3.66,1.7,7.7,2.54,12.12,2.54,4.73,0,9.05-1.04,12.95-3.13,3.9-2.09,7.08-5.24,9.52-9.46.09-.15.15-.33.23-.49v5.63c0,5.13-.77,9.32-2.31,12.6-1.54,3.27-4.02,5.67-7.45,7.21-3.43,1.54-8.02,2.3-13.78,2.3-2.76,0-5.69-.14-8.81-.41-3.11-.28-6.09-.61-8.93-1v9.58c2.68.39,5.5.71,8.45.95,2.96.24,5.89.35,8.81.35,8.44,0,15.2-1.1,20.28-3.31,5.09-2.21,8.79-5.66,11.12-10.35,2.32-4.69,3.49-10.82,3.49-18.39v-55.7h-8.99ZM567.48,80.85c0,4.34-.93,8.06-2.78,11.17-1.85,3.12-4.34,5.5-7.45,7.15-3.11,1.66-6.56,2.49-10.35,2.49-4.02,0-7.59-.93-10.7-2.78-3.12-1.85-5.56-4.51-7.33-7.98-1.77-3.47-2.66-7.53-2.66-12.18s.87-8.69,2.6-12.12c1.73-3.43,4.18-6.09,7.33-7.98,3.15-1.89,6.78-2.84,10.88-2.84,3.62,0,6.97.75,10.05,2.25,3.08,1.5,5.58,3.71,7.51,6.62,1.93,2.92,2.9,6.5,2.9,10.76v5.44Z" fill="#fff"/>
  <g>
    <path d="M38.01,142.5v-.97c-.41-5.11,1.4-14.62,10.73-19.65,8.47-4.56,10.47-5.65,10.49-5.67l.15-.08s4.73-2.6,4.73-6.86v-24.67c-4.72,2.8-25,14.78-32.71,18.94-4.95,2.66-4.44,8.11-4.44,8.17l.03.62v23.82l11.01,6.36Z" fill="#fff"/>
    <path d="M50.01,140.71l.05.39-.03.15v8.19l14.1,8.14v-30.35c-1.24.67-4.02,2.18-9.7,5.23-4.72,2.54-4.47,7.67-4.43,8.24Z" fill="#fff"/>
    <path d="M108.85,85.43c-7.71-4.15-27.99-16.14-32.71-18.94v25.37c0,4.26,4.68,6.84,4.73,6.86l.15.08s2.03,1.11,10.49,5.67c9.33,5.03,11.14,14.54,10.73,19.65v18.93l11.01-6.36v-42.87l.03-.23c.04-.5.28-5.62-4.44-8.17Z" fill="#fff"/>
    <path d="M90.22,123.46l.03-.23c.04-.5.28-5.63-4.44-8.17-5.61-3.02-8.4-4.53-9.66-5.21v48.26s0,0,0,0l14.05-8.11v-26.53Z" fill="#fff"/>
    <path d="M135.63,35.82L76.17,1.49c-1.72-.99-3.65-1.49-5.57-1.49s-3.85.5-5.57,1.49L5.57,35.82c-3.45,1.99-5.57,5.67-5.57,9.65v68.66c0,3.98,2.12,7.66,5.57,9.65l9.4,5.43v-16.6c-.41-5.1,1.4-14.62,10.73-19.65,8.35-4.49,33-19.12,33.25-19.26l.34-.2.37-.16c.12-.06,4.46-2.08,4.46-6.05v-22.92c-2.81-1.94-4.66-5.18-4.66-8.86,0-5.95,4.82-10.77,10.77-10.77s10.77,4.82,10.77,10.77c0,3.76-1.93,7.06-4.85,8.99v4.68c0,3.98,4.34,5.99,4.52,6.08l.37.16.28.18c.25.15,24.9,14.77,33.25,19.26,9.33,5.02,11.14,14.54,10.73,19.65v35.26l10.35-5.98c3.45-1.99,5.57-5.67,5.57-9.65V45.47c0-3.98-2.12-7.66-5.57-9.65Z" fill="#fff"/>
  </g>
  <g>
    <path d="M185.11,143.04c-.71-.79-1.59-1.41-2.62-1.86s-2.22-.68-3.56-.68c-1.62,0-3.08.39-4.38,1.18-1.31.79-2.34,1.86-3.09,3.22-.76,1.36-1.13,2.92-1.13,4.69s.38,3.28,1.13,4.68c.75,1.39,1.8,2.49,3.14,3.3s2.88,1.21,4.63,1.21c1.21,0,2.31-.19,3.32-.57,1-.38,1.87-.89,2.59-1.54.72-.65,1.26-1.38,1.6-2.2l-2.98-1.49c-.45.76-1.05,1.37-1.78,1.84-.73.47-1.64.71-2.72.71-1.01,0-1.93-.25-2.73-.74-.81-.5-1.44-1.19-1.88-2.07-.3-.6-.43-1.3-.47-2.04h12.98c.06-.26.11-.54.13-.84.02-.3.03-.59.03-.87,0-1.14-.19-2.22-.57-3.24-.38-1.01-.92-1.91-1.63-2.7ZM174.63,146.39c.41-.91.99-1.6,1.75-2.09.75-.49,1.61-.73,2.56-.73s1.82.24,2.56.73,1.27,1.14,1.62,1.97c.19.46.28.97.3,1.51h-9.18c.08-.5.21-.97.4-1.39Z" fill="#fff"/>
    <path d="M212.82,141.34c-.98-.56-2.08-.84-3.28-.84-1.38,0-2.6.35-3.67,1.03-.74.48-1.34,1.14-1.81,1.96-.41-.74-.97-1.37-1.71-1.88-1.09-.74-2.33-1.12-3.74-1.12-1.25,0-2.36.3-3.33.91-.69.43-1.17,1.05-1.55,1.77v-2.29h-3.49v17.5h3.66v-10.32c0-.86.16-1.6.47-2.22.31-.62.75-1.09,1.31-1.44.56-.34,1.21-.52,1.94-.52s1.4.17,1.94.52c.54.35.97.83,1.28,1.44s.47,1.35.47,2.22v10.32h3.66v-10.32c0-.86.16-1.6.49-2.22.32-.62.77-1.09,1.33-1.44.56-.34,1.21-.52,1.94-.52s1.37.17,1.92.52c.55.35.98.83,1.29,1.44.31.62.47,1.35.47,2.22v10.32h3.66v-11.32c0-1.27-.29-2.4-.87-3.4-.58-.99-1.36-1.77-2.35-2.33Z" fill="#fff"/>
    <path d="M233.14,141.7c-1.33-.8-2.82-1.2-4.48-1.2-1.38,0-2.61.28-3.69.84-.88.46-1.58,1.09-2.17,1.84v-2.29h-3.49v23.97h3.66v-8.61c.54.68,1.17,1.27,1.99,1.68,1.11.56,2.35.84,3.7.84,1.68,0,3.18-.4,4.5-1.21s2.36-1.9,3.12-3.28c.77-1.38,1.15-2.93,1.15-4.66s-.38-3.28-1.15-4.66c-.77-1.38-1.81-2.47-3.14-3.27ZM232.93,152.59c-.45.87-1.08,1.56-1.89,2.05-.81.5-1.73.74-2.77.74s-1.89-.25-2.7-.74c-.81-.5-1.45-1.18-1.91-2.05-.46-.87-.7-1.86-.7-2.96s.23-2.06.7-2.93c.46-.87,1.1-1.56,1.91-2.05.81-.5,1.71-.74,2.7-.74s1.96.25,2.77.76c.81.51,1.44,1.19,1.89,2.04.45.85.68,1.83.68,2.93s-.23,2.09-.68,2.96Z" fill="#fff"/>
    <path d="M253.43,141.68c-1.37-.79-2.92-1.18-4.64-1.18s-3.28.39-4.66,1.18c-1.38.79-2.48,1.87-3.28,3.24-.81,1.37-1.21,2.94-1.21,4.71s.41,3.31,1.23,4.69c.82,1.38,1.92,2.47,3.3,3.27,1.38.8,2.92,1.2,4.63,1.2s3.21-.39,4.59-1.18c1.38-.79,2.48-1.87,3.3-3.25.82-1.38,1.23-2.95,1.23-4.72s-.4-3.34-1.21-4.71c-.81-1.37-1.9-2.45-3.27-3.24ZM253.39,152.59c-.46.87-1.1,1.56-1.89,2.05-.8.5-1.7.74-2.72.74s-1.92-.25-2.73-.74c-.81-.5-1.44-1.18-1.91-2.05-.46-.87-.7-1.86-.7-2.96s.23-2.08.7-2.93c.46-.85,1.1-1.53,1.91-2.04.81-.51,1.72-.76,2.73-.76s1.92.25,2.72.76c.8.51,1.43,1.19,1.89,2.04.46.85.7,1.83.7,2.93s-.23,2.09-.7,2.96Z" fill="#fff"/>
    <polygon points="277.84 152.79 273.86 140.89 270.53 140.89 266.52 152.8 262.6 140.89 258.72 140.89 264.74 158.4 268.07 158.4 272.19 145.96 276.32 158.4 279.62 158.4 285.67 140.89 281.79 140.89 277.84 152.79" fill="#fff"/>
    <path d="M301.26,143.04c-.71-.79-1.59-1.41-2.62-1.86s-2.22-.68-3.56-.68c-1.62,0-3.08.39-4.38,1.18-1.31.79-2.34,1.86-3.09,3.22-.76,1.36-1.13,2.92-1.13,4.69s.38,3.28,1.13,4.68c.75,1.39,1.8,2.49,3.14,3.3s2.88,1.21,4.63,1.21c1.21,0,2.31-.19,3.32-.57,1-.38,1.87-.89,2.59-1.54.72-.65,1.26-1.38,1.6-2.2l-2.98-1.49c-.45.76-1.05,1.37-1.78,1.84-.73.47-1.64.71-2.72.71-1.01,0-1.93-.25-2.73-.74-.81-.5-1.44-1.19-1.88-2.07-.3-.6-.43-1.3-.47-2.04h12.98c.06-.26.11-.54.13-.84.02-.3.03-.59.03-.87,0-1.14-.19-2.22-.57-3.24-.38-1.01-.92-1.91-1.63-2.7ZM290.78,146.39c.41-.91.99-1.6,1.75-2.09.75-.49,1.61-.73,2.56-.73s1.82.24,2.56.73,1.27,1.14,1.62,1.97c.19.46.28.97.3,1.51h-9.18c.08-.5.21-.97.4-1.39Z" fill="#fff"/>
    <path d="M311.42,141.43c-.66.38-1.17.96-1.55,1.73v-2.26h-3.49v17.5h3.66v-10.09c0-1.36.37-2.42,1.12-3.17.74-.76,1.72-1.13,2.93-1.13h1.52v-3.33h-1.07c-1.21,0-2.24.25-3.11.76Z" fill="#fff"/>
    <rect x="317.44" y="134.29" width="3.66" height="4.21" fill="#fff"/>
    <rect x="317.44" y="140.89" width="3.66" height="17.5" fill="#fff"/>
    <path d="M336.6,141.34c-.99-.56-2.13-.84-3.43-.84s-2.35.29-3.3.86c-.71.43-1.23,1.06-1.65,1.78v-2.25h-3.49v17.5h3.66v-10.32c0-.86.16-1.6.49-2.22s.78-1.09,1.38-1.44c.59-.34,1.27-.52,2.02-.52s1.42.17,2.01.52c.58.35,1.04.83,1.36,1.44.32.62.49,1.35.49,2.22v10.32h3.66v-11.29c0-1.29-.28-2.44-.84-3.43-.56-.99-1.34-1.77-2.33-2.33Z" fill="#fff"/>
    <path d="M356.46,143.19c-.59-.75-1.25-1.39-2.07-1.83-1.06-.57-2.25-.86-3.59-.86-1.62,0-3.07.38-4.35,1.13-1.28.76-2.29,1.78-3.02,3.07-.73,1.29-1.1,2.77-1.1,4.43s.37,3.12,1.1,4.43c.73,1.32,1.75,2.35,3.04,3.11,1.29.76,2.76,1.13,4.4,1.13,1.34,0,2.54-.29,3.61-.87.73-.4,1.31-.97,1.83-1.61v2.25c0,.95-.21,1.76-.63,2.44-.42.68-1,1.2-1.73,1.55-.73.36-1.56.53-2.49.53-1.19,0-2.18-.27-2.99-.81-.81-.54-1.36-1.22-1.67-2.04l-3.36,1.39c.37.97.94,1.82,1.71,2.54.78.72,1.71,1.29,2.8,1.7,1.09.41,2.27.62,3.54.62,1.64,0,3.1-.35,4.38-1.04,1.28-.69,2.29-1.63,3.01-2.83.72-1.2,1.08-2.55,1.08-4.06v-16.69h-3.49v2.3ZM355.64,151.84c-.44.79-1.04,1.41-1.8,1.88-.76.46-1.62.7-2.59.7s-1.84-.23-2.62-.7c-.78-.46-1.39-1.1-1.83-1.89-.44-.8-.66-1.68-.66-2.65s.22-1.89.66-2.69c.44-.8,1.05-1.43,1.83-1.89.78-.46,1.65-.7,2.62-.7s1.83.23,2.59.7c.76.46,1.35,1.1,1.8,1.89.44.8.66,1.69.66,2.69s-.22,1.88-.66,2.67Z" fill="#fff"/>
    <path d="M380,141.41c-.98-.56-2.1-.84-3.35-.84s-2.42.31-3.38.92c-.68.44-1.19,1.04-1.6,1.73v-2.26h-2.98v17.44h3.04v-10.32c0-.95.18-1.76.55-2.44.37-.68.87-1.2,1.5-1.57.64-.37,1.36-.55,2.18-.55s1.55.18,2.18.55c.64.37,1.13.88,1.47,1.55.34.67.52,1.49.52,2.46v10.32h3.04v-11.29c0-1.25-.29-2.37-.86-3.36-.57-.99-1.35-1.77-2.33-2.33Z" fill="#fff"/>
    <path d="M400.61,143.14c-.7-.79-1.55-1.41-2.56-1.88-1-.46-2.15-.7-3.45-.7-1.62,0-3.06.39-4.34,1.18-1.27.79-2.29,1.86-3.04,3.22-.76,1.36-1.13,2.91-1.13,4.66s.38,3.28,1.13,4.68,1.8,2.49,3.12,3.28c1.33.8,2.83,1.2,4.51,1.2,1.19,0,2.27-.19,3.27-.58.99-.39,1.85-.91,2.57-1.57s1.26-1.39,1.6-2.18l-2.52-1.29c-.5.84-1.14,1.53-1.94,2.07-.8.54-1.78.81-2.94.81-1.06,0-2.03-.26-2.93-.79s-1.59-1.27-2.07-2.23c-.36-.71-.51-1.53-.55-2.41h13.29c.04-.28.08-.56.11-.84s.05-.55.05-.81c0-1.08-.19-2.12-.57-3.12s-.92-1.9-1.62-2.68ZM391.82,144.05c.84-.53,1.77-.79,2.78-.79s1.92.26,2.72.78c.8.52,1.4,1.22,1.81,2.1.26.56.35,1.19.36,1.84h-10.12c.09-.62.24-1.2.5-1.71.46-.95,1.12-1.69,1.96-2.22Z" fill="#fff"/>
    <path d="M413.76,155.84c-.71,0-1.28-.12-1.71-.37-.43-.25-.74-.59-.92-1.02-.18-.43-.28-.94-.28-1.52v-9.09h3.92v-2.88h-3.92v-4.01h-3.04v1.42c0,.78-.22,1.4-.66,1.88-.44.47-1.05.71-1.83.71h-.65v2.88h3.14v9.19c0,1.77.46,3.14,1.39,4.11.93.97,2.24,1.46,3.95,1.46.24,0,.53-.02.87-.05.34-.03.66-.08.94-.15v-2.65c-.19.02-.4.04-.63.06-.23.02-.42.03-.57.03Z" fill="#fff"/>
    <polygon points="434.77 153.73 430.68 140.96 427.84 140.96 423.75 153.73 419.58 140.96 416.25 140.96 422.24 158.4 425.12 158.4 429.26 145.27 433.4 158.4 436.28 158.4 442.27 140.96 438.97 140.96 434.77 153.73" fill="#fff"/>
    <path d="M456.83,141.75c-1.36-.79-2.89-1.18-4.59-1.18s-3.2.4-4.56,1.2c-1.36.8-2.44,1.88-3.24,3.24s-1.2,2.91-1.2,4.66.4,3.31,1.21,4.69c.81,1.38,1.89,2.46,3.25,3.25,1.36.79,2.87,1.18,4.53,1.18s3.17-.39,4.51-1.18,2.43-1.87,3.25-3.24c.82-1.37,1.23-2.94,1.23-4.71s-.39-3.33-1.18-4.69c-.79-1.36-1.86-2.43-3.22-3.22ZM457.26,152.83c-.51.95-1.2,1.69-2.07,2.23-.87.54-1.86.81-2.96.81s-2.05-.27-2.93-.81c-.87-.54-1.57-1.28-2.09-2.23-.52-.95-.78-2.01-.78-3.17s.26-2.21.78-3.14c.52-.93,1.21-1.66,2.09-2.2.87-.54,1.85-.81,2.93-.81s2.09.27,2.96.81c.87.54,1.56,1.27,2.07,2.2.51.93.76,1.97.76,3.14s-.25,2.22-.76,3.17Z" fill="#fff"/>
    <path d="M468.99,141.49c-.67.38-1.16.97-1.55,1.68v-2.21h-2.98v17.44h3.04v-10.39c0-1.4.38-2.48,1.13-3.24.75-.76,1.75-1.13,2.98-1.13h1.52v-2.88h-1.07c-1.21,0-2.23.24-3.07.73Z" fill="#fff"/>
    <polygon points="490.05 140.96 486.2 140.96 478.18 149.15 478.18 133.9 475.14 133.9 475.14 158.4 478.18 158.4 478.18 153.17 481.16 150.03 486.95 158.4 490.51 158.4 483.36 147.98 490.05 140.96" fill="#fff"/>
    <path d="M503.98,150.6c-.79-.86-1.89-1.5-3.32-1.91l-2.85-.84c-.35-.11-.7-.24-1.07-.4-.37-.16-.68-.4-.94-.71-.26-.31-.39-.71-.39-1.18,0-.69.26-1.25.78-1.68.52-.43,1.22-.65,2.1-.65.97,0,1.85.26,2.62.78s1.36,1.23,1.75,2.14l2.46-1.13c-.52-1.4-1.39-2.49-2.6-3.27s-2.59-1.17-4.13-1.17c-1.14,0-2.17.22-3.09.65-.92.43-1.64,1.03-2.17,1.8-.53.77-.79,1.67-.79,2.7,0,1.12.36,2.11,1.08,2.96.72.85,1.86,1.49,3.41,1.93l2.62.74c.37.09.75.22,1.15.4s.74.43,1.04.74c.29.31.44.73.44,1.25,0,.73-.31,1.33-.94,1.78-.63.45-1.4.68-2.33.68-1.06,0-2.02-.3-2.88-.91-.86-.6-1.54-1.42-2.04-2.46l-2.43,1.17c.56,1.47,1.49,2.63,2.78,3.49,1.29.86,2.81,1.29,4.56,1.29,1.25,0,2.35-.22,3.3-.65.95-.43,1.69-1.04,2.23-1.81.54-.78.81-1.65.81-2.62,0-1.21-.39-2.24-1.18-3.11Z" fill="#fff"/>
  </g>
</svg>